PathFileType	4	(X/Y/Z)	C:/Users/beibeiliu/ov580/test_trc\sequence.7_training_dense_right.trc
DataRate	CameraRate	NumFrames	NumMarkers	Units	OrigDataRate	OrigDataStartFrame	OrigNumFrames
120	120	8	19	mm	120	1	310
Frame#	Time	ThumbCMC			ThumbMCP			ThumbIP			ThumbTip			IndexMCP			IndexPIP			IndexTip			MiddleMCP			MiddlePIP			MiddleTip			RingMCP			RingPIP			RingTip			PinkyMCP			PinkyPIP			PinkyTip			BackHand1			BackHand2			BackHand3	
		X0	Y0	Z0	X1	Y1	Z1	X2	Y2	Z2	X3	Y3	Z3	X4	Y4	Z4	X5	Y5	Z5	X6	Y6	Z6	X7	Y7	Z7	X8	Y8	Z8	X9	Y9	Z9	X10	Y10	Z10	X11	Y11	Z11	X12	Y12	Z12	X13	Y13	Z13	X14	Y14	Z14	X15	Y15	Z15	X16	Y16	Z16	X17	Y17	Z17	X18	Y18	Z18	
0	0	145.022	17.4846	51.8725	128.679	12.8867	32.2933	113.935	16.3629	13.1331	101.681	14.8826	1.93574	147.059	30.1402	-16.5784	137.298	24.5689	-38.7888	131.217	18.2838	-55.1254	166.951	26.1902	-23.701	164.261	23.4863	-47.4941	161.946	17.4722	-72.4431	184.729	17.662	-17.3185	182.136	17.1457	-43.1291	180.657	14.1303	-64.6355	206.884	4.84933	-7.87048	208.528	4.09983	-29.0213	211.355	7.6964	-44.0295	193.85	23.625	28.8115	197.022	24.007	48.8031	171.867	32.9609	41.6872	
1	0.00833333	154.965	-0.239552	46.0227	131.487	-3.93691	26.7725	121.413	-4.06773	4.76869	112.572	-4.90603	-12.0738	154.238	11.5904	-22.0335	147.493	4.80975	-47.4995	138.642	-0.791412	-64.8639	177.94	7.48477	-30.4861	171.293	4.69151	-53.5711	171.596	-1.49415	-79.4393	193.609	-0.422312	-26.5193	192.279	-2.75295	-49.2233	193.345	-5.30837	-70.8465	211.673	-9.64713	-15.2565	217.548	-11.7111	-31.9424	225.118	-10.4142	-45.7517	198.582	7.88501	17.9412	201.397	11.6306	45.229	175.898	17.0995	34.7877	
2	0.0166667	156.157	-10.8701	36.9072	138.96	-17.0344	17.0511	130.446	-18.6382	-1.94901	114.859	-21.2999	-15.0645	161.708	-3.56213	-32.5635	156.167	-8.90275	-53.1631	150.668	-17.3945	-72.2477	181.374	-6.88203	-36.3762	179.658	-10.9635	-64.868	181.628	-17.9164	-87.3473	203.618	-14.2632	-33.471	199.143	-16.7537	-55.3453	202.363	-20.3857	-72.2244	219.825	-22.9312	-21.5742	226.785	-26.6305	-32.6605	234.012	-22.056	-53.1141	205.536	-3.97136	10.4171	205.894	1.09912	37.5413	180.322	5.48408	26.5086	
3	0.025	160.355	-19.4213	30.7903	146.225	-26.2491	10.4634	131.351	-28.9017	-4.96507	123.85	-30.5795	-21.9752	163.39	-13.4488	-31.9081	161.544	-20.7154	-58.8633	152.452	-27.2409	-78.8904	188.841	-16.3792	-43.5511	186.34	-21.197	-67.0168	185.231	-26.9439	-91.8537	204.149	-21.5939	-36.8904	207.083	-26.5644	-54.0231	209.78	-30.1869	-76.3499	226.655	-30.9073	-21.731	232.737	-34.8338	-36.8858	238.137	-31.9943	-54.8438	210.92	-11.7455	7.79489	208.901	-8.02051	34.492	185.382	-2.99244	19.4553	
4	0.0333333	159.52	-24.5313	34.5158	148.614	-32.3307	12.1629	136.638	-33.9774	-7.88518	126.834	-35.7104	-25.6915	168.693	-20.1827	-34.6414	162.331	-25.1022	-55.9928	161.465	-35.8559	-82.2905	189.251	-21.5178	-45.4296	190.387	-26.5336	-65.7599	191.842	-33.2346	-92.1184	207.299	-26.5357	-34.6839	210.848	-31.0403	-56.0717	209.91	-33.6654	-80.9956	225.327	-34.3535	-24.0137	231.81	-36.5065	-37.2749	242.196	-33.1919	-54.6276	211.596	-17.0987	10.3129	214.572	-12.4424	34.2336	186.332	-7.30849	21.6872	
5	0.0416667	164.477	-26.3126	31.1541	147.444	-33.4375	14.0048	135.449	-33.8361	-9.85134	124.657	-36.0753	-24.9067	166.552	-21.0387	-36.66	163.839	-28.5474	-60.7796	158.719	-36.4163	-81.4645	189.309	-22.8079	-38.9519	189.44	-28.718	-62.3841	190.938	-34.8766	-92.6249	212.484	-30.8445	-36.0093	211.259	-33.0319	-53.5132	214.181	-37.722	-76.2117	230.983	-39.1173	-20.1413	231.59	-39.4279	-37.6871	243.4	-35.7965	-52.9831	213.462	-17.9322	10.3944	210.269	-13.1163	37.4452	187.833	-10.4993	22.0775	
6	0.05	164.169	-26.6789	36.4686	148.339	-31.8521	15.0529	136.001	-33.1172	-3.8749	123.463	-34.4718	-22.5841	165.532	-21.0984	-36.4602	167.517	-28.8147	-56.4835	158.892	-37.2035	-80.3527	192.986	-25.4552	-39.5562	189.924	-29.2868	-64.2572	194.055	-36.3549	-90.6603	212.872	-32.1227	-35.2126	213.788	-35.3937	-53.5405	214.803	-38.2402	-78.3796	228.952	-38.6902	-19.5243	232.111	-40.462	-38.487	243.542	-39.2391	-52.6936	209.874	-18.1907	8.52122	212.439	-15.257	35.9246	184.89	-10.2114	22.4128	
7	0.0583333	161.374	-24.633	37.2341	144.886	-30.1588	16.396	137.28	-32.2412	-6.42875	124.98	-32.912	-20.6429	169.884	-20.783	-31.9085	161.587	-27.7499	-58.3863	159.502	-36.4184	-79.7568	193.191	-24.6367	-38.5203	188.463	-28.4526	-65.6705	191.803	-32.5691	-88.0544	207.445	-29.5159	-35.6443	211.291	-33.8836	-55.442	212.017	-35.2641	-73.0493	230.451	-39.2094	-18.7781	233.789	-41.397	-32.3796	242.776	-38.007	-50.289	207.878	-19.1953	8.91061	213.188	-14.674	34.7034	187.76	-8.32836	21.4517	
